<mxfile host="app.diagrams.net" modified="2023-04-18T15:32:04.243Z" agent="Mozilla/5.0 (Macintosh; Intel Mac OS X 10_15_7) AppleWebKit/537.36 (KHTML, like Gecko) Chrome/109.0.0.0 Safari/537.36" etag="UXv5glnOOOasRy5xTxG5" version="21.1.8" type="github">
  <diagram name="Page-1" id="E_-CVDY9uOQFF0Avo7pD">
    <mxGraphModel dx="1780" dy="877" grid="1" gridSize="10" guides="1" tooltips="1" connect="1" arrows="1" fold="1" page="0" pageScale="1" pageWidth="850" pageHeight="1100" math="0" shadow="0">
      <root>
        <mxCell id="0" />
        <mxCell id="1" parent="0" />
        <mxCell id="MHudHR0-8P4LntQO_7Hx-44" value="" style="rounded=1;whiteSpace=wrap;html=1;arcSize=3;" vertex="1" parent="1">
          <mxGeometry x="1190" y="210" width="600" height="700" as="geometry" />
        </mxCell>
        <mxCell id="MHudHR0-8P4LntQO_7Hx-43" value="" style="rounded=1;whiteSpace=wrap;html=1;arcSize=3;" vertex="1" parent="1">
          <mxGeometry x="-65" y="1250" width="1065" height="470" as="geometry" />
        </mxCell>
        <mxCell id="MHudHR0-8P4LntQO_7Hx-42" value="" style="rounded=1;whiteSpace=wrap;html=1;arcSize=3;" vertex="1" parent="1">
          <mxGeometry x="-65" y="940" width="1035" height="270" as="geometry" />
        </mxCell>
        <mxCell id="MHudHR0-8P4LntQO_7Hx-41" value="" style="rounded=1;whiteSpace=wrap;html=1;arcSize=3;" vertex="1" parent="1">
          <mxGeometry x="-70" y="180" width="1050" height="730" as="geometry" />
        </mxCell>
        <mxCell id="MHudHR0-8P4LntQO_7Hx-3" value="" style="edgeStyle=orthogonalEdgeStyle;rounded=0;orthogonalLoop=1;jettySize=auto;html=1;" edge="1" parent="1" source="MHudHR0-8P4LntQO_7Hx-1" target="MHudHR0-8P4LntQO_7Hx-2">
          <mxGeometry relative="1" as="geometry" />
        </mxCell>
        <mxCell id="MHudHR0-8P4LntQO_7Hx-1" value="loginSuccessTasks" style="rounded=1;whiteSpace=wrap;html=1;" vertex="1" parent="1">
          <mxGeometry x="360" y="350" width="200" height="60" as="geometry" />
        </mxCell>
        <mxCell id="MHudHR0-8P4LntQO_7Hx-5" value="" style="edgeStyle=orthogonalEdgeStyle;rounded=0;orthogonalLoop=1;jettySize=auto;html=1;" edge="1" parent="1" source="MHudHR0-8P4LntQO_7Hx-2" target="MHudHR0-8P4LntQO_7Hx-4">
          <mxGeometry relative="1" as="geometry" />
        </mxCell>
        <mxCell id="MHudHR0-8P4LntQO_7Hx-7" value="&lt;b&gt;Success&lt;/b&gt;" style="edgeLabel;html=1;align=center;verticalAlign=middle;resizable=0;points=[];" vertex="1" connectable="0" parent="MHudHR0-8P4LntQO_7Hx-5">
          <mxGeometry x="0.0959" y="3" relative="1" as="geometry">
            <mxPoint x="77" y="-3" as="offset" />
          </mxGeometry>
        </mxCell>
        <mxCell id="MHudHR0-8P4LntQO_7Hx-10" value="" style="edgeStyle=orthogonalEdgeStyle;rounded=0;orthogonalLoop=1;jettySize=auto;html=1;" edge="1" parent="1" source="MHudHR0-8P4LntQO_7Hx-2" target="MHudHR0-8P4LntQO_7Hx-9">
          <mxGeometry relative="1" as="geometry" />
        </mxCell>
        <mxCell id="MHudHR0-8P4LntQO_7Hx-11" value="&lt;b&gt;Failure&lt;/b&gt;" style="edgeLabel;html=1;align=center;verticalAlign=middle;resizable=0;points=[];" vertex="1" connectable="0" parent="MHudHR0-8P4LntQO_7Hx-10">
          <mxGeometry x="-0.2682" y="1" relative="1" as="geometry">
            <mxPoint as="offset" />
          </mxGeometry>
        </mxCell>
        <mxCell id="MHudHR0-8P4LntQO_7Hx-2" value="JRP2PUniversalHandler()&lt;br&gt;.fetchRecentPayments" style="whiteSpace=wrap;html=1;rounded=1;" vertex="1" parent="1">
          <mxGeometry x="350" y="490" width="220" height="60" as="geometry" />
        </mxCell>
        <mxCell id="MHudHR0-8P4LntQO_7Hx-14" style="edgeStyle=orthogonalEdgeStyle;rounded=0;orthogonalLoop=1;jettySize=auto;html=1;" edge="1" parent="1" source="MHudHR0-8P4LntQO_7Hx-4">
          <mxGeometry relative="1" as="geometry">
            <mxPoint x="480" y="800" as="targetPoint" />
          </mxGeometry>
        </mxCell>
        <mxCell id="MHudHR0-8P4LntQO_7Hx-4" value="updateRecentApi(status: .success) &lt;br&gt;&quot;recentApiStatus&quot; = success in UserDefaults" style="whiteSpace=wrap;html=1;rounded=1;" vertex="1" parent="1">
          <mxGeometry x="-30" y="600" width="311" height="120" as="geometry" />
        </mxCell>
        <mxCell id="MHudHR0-8P4LntQO_7Hx-13" style="edgeStyle=orthogonalEdgeStyle;rounded=0;orthogonalLoop=1;jettySize=auto;html=1;" edge="1" parent="1" source="MHudHR0-8P4LntQO_7Hx-9" target="MHudHR0-8P4LntQO_7Hx-12">
          <mxGeometry relative="1" as="geometry" />
        </mxCell>
        <mxCell id="MHudHR0-8P4LntQO_7Hx-9" value="updateFailureData &lt;br&gt;updateRecentApi(status: .failure)" style="whiteSpace=wrap;html=1;rounded=1;" vertex="1" parent="1">
          <mxGeometry x="640" y="600" width="260" height="120" as="geometry" />
        </mxCell>
        <mxCell id="MHudHR0-8P4LntQO_7Hx-12" value="JRRecentScansGenericManager&lt;br&gt;.addRecentPayments([n] | [])" style="rounded=1;whiteSpace=wrap;html=1;" vertex="1" parent="1">
          <mxGeometry x="350" y="800" width="260" height="60" as="geometry" />
        </mxCell>
        <mxCell id="MHudHR0-8P4LntQO_7Hx-17" value="" style="edgeStyle=orthogonalEdgeStyle;rounded=0;orthogonalLoop=1;jettySize=auto;html=1;" edge="1" parent="1" source="MHudHR0-8P4LntQO_7Hx-15" target="MHudHR0-8P4LntQO_7Hx-16">
          <mxGeometry relative="1" as="geometry" />
        </mxCell>
        <mxCell id="MHudHR0-8P4LntQO_7Hx-15" value="addRecentPayments([n] | [])" style="rounded=1;whiteSpace=wrap;html=1;" vertex="1" parent="1">
          <mxGeometry x="1380" y="340" width="260" height="60" as="geometry" />
        </mxCell>
        <mxCell id="MHudHR0-8P4LntQO_7Hx-20" value="" style="edgeStyle=orthogonalEdgeStyle;rounded=0;orthogonalLoop=1;jettySize=auto;html=1;" edge="1" parent="1" source="MHudHR0-8P4LntQO_7Hx-16" target="MHudHR0-8P4LntQO_7Hx-19">
          <mxGeometry relative="1" as="geometry" />
        </mxCell>
        <mxCell id="MHudHR0-8P4LntQO_7Hx-16" value="&lt;b style=&quot;color: rgb(255, 0, 0);&quot;&gt;getDictionaryForPlist(withQRCode)&lt;/b&gt;&lt;br&gt;&lt;br&gt;&lt;b style=&quot;&quot;&gt;NCPost &quot;recentsScansUpdated&quot;&lt;/b&gt;" style="whiteSpace=wrap;html=1;rounded=1;" vertex="1" parent="1">
          <mxGeometry x="1400" y="480" width="220" height="60" as="geometry" />
        </mxCell>
        <mxCell id="MHudHR0-8P4LntQO_7Hx-22" value="" style="edgeStyle=orthogonalEdgeStyle;rounded=0;orthogonalLoop=1;jettySize=auto;html=1;" edge="1" parent="1" source="MHudHR0-8P4LntQO_7Hx-19" target="MHudHR0-8P4LntQO_7Hx-21">
          <mxGeometry relative="1" as="geometry" />
        </mxCell>
        <mxCell id="MHudHR0-8P4LntQO_7Hx-19" value="JRCameraScanViewControllerV2&lt;br&gt;.refreshCollection()&lt;span style=&quot;font-family: Menlo; font-size: 14px; text-align: start; color: rgba(255, 255, 255, 0.85);&quot; class=&quot;s1&quot;&gt;()&lt;/span&gt;" style="whiteSpace=wrap;html=1;rounded=1;" vertex="1" parent="1">
          <mxGeometry x="1415" y="620" width="190" height="60" as="geometry" />
        </mxCell>
        <mxCell id="MHudHR0-8P4LntQO_7Hx-21" value="fetchRecentScansWithUPIForType(getAllRecents)" style="whiteSpace=wrap;html=1;rounded=1;" vertex="1" parent="1">
          <mxGeometry x="1360" y="760" width="300" height="60" as="geometry" />
        </mxCell>
        <mxCell id="MHudHR0-8P4LntQO_7Hx-25" style="edgeStyle=orthogonalEdgeStyle;rounded=0;orthogonalLoop=1;jettySize=auto;html=1;entryX=0.5;entryY=0;entryDx=0;entryDy=0;" edge="1" parent="1" source="MHudHR0-8P4LntQO_7Hx-23" target="MHudHR0-8P4LntQO_7Hx-1">
          <mxGeometry relative="1" as="geometry" />
        </mxCell>
        <mxCell id="MHudHR0-8P4LntQO_7Hx-23" value="After Successful Login" style="whiteSpace=wrap;html=1;rounded=1;" vertex="1" parent="1">
          <mxGeometry x="400" y="210" width="120" height="60" as="geometry" />
        </mxCell>
        <mxCell id="MHudHR0-8P4LntQO_7Hx-28" value="" style="edgeStyle=orthogonalEdgeStyle;rounded=0;orthogonalLoop=1;jettySize=auto;html=1;" edge="1" parent="1" source="MHudHR0-8P4LntQO_7Hx-26" target="MHudHR0-8P4LntQO_7Hx-27">
          <mxGeometry relative="1" as="geometry" />
        </mxCell>
        <mxCell id="MHudHR0-8P4LntQO_7Hx-26" value="Scan Flow" style="rounded=1;whiteSpace=wrap;html=1;" vertex="1" parent="1">
          <mxGeometry x="400" y="960" width="120" height="60" as="geometry" />
        </mxCell>
        <mxCell id="MHudHR0-8P4LntQO_7Hx-27" value="JRRecentScansGenericManager().fetchRecentScansWithUPIForType(getAllRecents: false)&lt;br&gt;&lt;br&gt;checkAndHitRecentScanApi(recentCount: value.totalCount)" style="whiteSpace=wrap;html=1;rounded=1;" vertex="1" parent="1">
          <mxGeometry x="220" y="1080" width="480" height="90" as="geometry" />
        </mxCell>
        <mxCell id="MHudHR0-8P4LntQO_7Hx-35" value="" style="edgeStyle=orthogonalEdgeStyle;rounded=0;orthogonalLoop=1;jettySize=auto;html=1;" edge="1" parent="1" source="MHudHR0-8P4LntQO_7Hx-33" target="MHudHR0-8P4LntQO_7Hx-34">
          <mxGeometry relative="1" as="geometry" />
        </mxCell>
        <mxCell id="MHudHR0-8P4LntQO_7Hx-33" value="Successful Payment Merchant" style="rounded=1;whiteSpace=wrap;html=1;" vertex="1" parent="1">
          <mxGeometry x="422.5" y="1290" width="120" height="60" as="geometry" />
        </mxCell>
        <mxCell id="MHudHR0-8P4LntQO_7Hx-39" value="" style="edgeStyle=orthogonalEdgeStyle;rounded=0;orthogonalLoop=1;jettySize=auto;html=1;" edge="1" parent="1" source="MHudHR0-8P4LntQO_7Hx-34" target="MHudHR0-8P4LntQO_7Hx-38">
          <mxGeometry relative="1" as="geometry" />
        </mxCell>
        <mxCell id="MHudHR0-8P4LntQO_7Hx-34" value="JRRecentScansGenericManager().addRecentScan" style="whiteSpace=wrap;html=1;rounded=1;" vertex="1" parent="1">
          <mxGeometry x="332.5" y="1430" width="300" height="50" as="geometry" />
        </mxCell>
        <mxCell id="MHudHR0-8P4LntQO_7Hx-36" value="JRP2PUniversalHandler().updateRecentPayments" style="whiteSpace=wrap;html=1;rounded=1;" vertex="1" parent="1">
          <mxGeometry x="332.5" y="1630" width="300" height="60" as="geometry" />
        </mxCell>
        <mxCell id="MHudHR0-8P4LntQO_7Hx-40" value="" style="edgeStyle=orthogonalEdgeStyle;rounded=0;orthogonalLoop=1;jettySize=auto;html=1;" edge="1" parent="1" source="MHudHR0-8P4LntQO_7Hx-38" target="MHudHR0-8P4LntQO_7Hx-36">
          <mxGeometry relative="1" as="geometry" />
        </mxCell>
        <mxCell id="MHudHR0-8P4LntQO_7Hx-38" value="&lt;font style=&quot;font-size: 14px;&quot;&gt;JRRecentScansGenericManager().updateRecentPayments()&lt;/font&gt;" style="whiteSpace=wrap;html=1;rounded=1;fontStyle=1" vertex="1" parent="1">
          <mxGeometry x="265" y="1520" width="435" height="60" as="geometry" />
        </mxCell>
      </root>
    </mxGraphModel>
  </diagram>
</mxfile>
